<svg xmlns="http://www.w3.org/2000/svg" viewBox="0 0 1132 3300" width="1132" height="3300">
	<style>
		tspan { white-space:pre }
		.shp0 { fill: #660099 } 
	</style>
	<path id="path2" fill-rule="evenodd" class="shp0" d="M209.19 200.48C249.51 200.39 312.46 214.5 356.97 258.72C360 261.72 362.96 264.81 365.82 267.97C368.69 271.14 371.46 274.39 374.15 277.71C376.83 281.03 379.42 284.43 381.91 287.9C384.4 291.37 386.79 294.9 389.09 298.51C402.63 319.25 412.06 334.34 434.63 325.85C456.72 317.55 449.81 291.91 444.24 267.55C442.33 259.72 405.34 107.07 405.24 105.12C403.38 95.37 403.4 85.36 405.29 75.61C407.18 65.87 410.92 56.58 416.3 48.23C421.67 39.89 428.6 32.65 436.69 26.9C444.78 21.15 453.89 17 463.54 14.67L515.24 2.19C524.9 -0.15 534.91 -0.63 544.74 0.77C554.58 2.17 564.05 5.43 572.67 10.38C581.28 15.32 588.87 21.86 595.04 29.65C601.21 37.44 605.84 46.32 608.68 55.84C609.44 57.57 650.11 224.4 650.17 224.68C658.34 256.36 674.18 274.9 704.86 274.78C718.53 274.78 733.39 266.83 745.71 257.05C745.71 257.05 970.65 75.14 972.41 74.23C980.41 68.34 989.46 64.03 999.07 61.52C1008.68 59.01 1018.68 58.35 1028.54 59.59C1038.4 60.82 1047.93 63.91 1056.63 68.71C1065.33 73.5 1073.03 79.91 1079.34 87.59L1112.97 128.76C1119.25 136.43 1124.01 145.24 1126.98 154.7C1129.96 164.16 1131.1 174.1 1130.34 183.99C1129.58 193.88 1126.94 203.53 1122.56 212.43C1118.18 221.33 1112.14 229.3 1104.76 235.93C1103.51 237.41 965 350.4 950.26 362.37C935.61 374.35 913.23 389.4 913.33 410.33C913.33 431.14 935.83 446.1 950.54 458.04C965.31 469.95 1104.39 582.31 1105.61 583.7C1113.03 590.29 1119.11 598.24 1123.54 607.12C1127.97 615.99 1130.67 625.63 1131.48 635.52C1132.29 645.41 1131.2 655.36 1128.28 664.84C1125.36 674.32 1120.65 683.16 1114.41 690.87C1114.1 691.22 1081 732.04 1080.97 732.17C1074.7 739.87 1067.03 746.31 1058.35 751.15C1049.68 755.98 1040.17 759.13 1030.32 760.41C1020.47 761.7 1010.47 761.1 1000.85 758.66C991.22 756.21 982.15 751.96 974.11 746.12C972.35 745.24 746.5 564.37 746.5 564.37C734.15 554.69 719.22 546.8 705.55 546.83C674.87 546.96 659.13 565.47 651.11 597.24C651.11 597.53 611.2 764.54 610.47 766.24C607.68 775.77 603.09 784.68 596.96 792.5C590.83 800.32 583.27 806.9 574.68 811.89C566.09 816.89 556.63 820.2 546.8 821.65C536.97 823.11 526.95 822.68 517.29 820.39C516.82 820.33 465.65 808.23 465.49 808.17C455.84 805.88 446.7 801.77 438.59 796.06C430.47 790.35 423.51 783.15 418.09 774.84C412.67 766.53 408.89 757.26 406.94 747.53C404.99 737.8 404.92 727.78 406.72 718.03C406.72 716.14 443.11 563.27 444.97 555.41C450.37 531.05 457.23 505.28 435.07 497.14C412.44 488.81 403.07 503.9 389.65 524.7C387.38 528.32 385 531.88 382.53 535.36C380.06 538.85 377.48 542.26 374.82 545.6C372.15 548.94 369.39 552.2 366.54 555.38C363.69 558.56 360.75 561.67 357.72 564.68C313.5 609.12 250.55 623.55 210.22 623.64C94.56 623.9 0.59 527.91 0.27 412.56C-0.04 297.22 93.53 200.76 209.19 200.51L209.19 200.48ZM908.58 3003.63C908.58 3012.74 903.8 3047.69 868.64 3066.93L469.95 3291.3C427.71 3314.31 391.88 3287.22 382.99 3263.2L356.18 3203.52C341.79 3171.43 357 3132.8 390.66 3118.35L674.43 2977.61L674.43 2975.5L390.66 2834.57C357.03 2820.11 341.79 2781.55 356.18 2749.4L382.99 2689.71C391.88 2665.73 427.71 2638.64 469.95 2661.65L868.64 2886.02C874.38 2889.13 879.7 2892.96 884.47 2897.42C889.24 2901.89 893.42 2906.94 896.9 2912.47C900.38 2918 903.14 2923.95 905.1 2930.17C907.07 2936.4 908.23 2942.86 908.55 2949.38L908.55 3003.6L908.58 3003.63ZM908.58 2017.75C908.26 2024.28 907.1 2030.73 905.13 2036.96C903.16 2043.19 900.4 2049.13 896.91 2054.66C893.43 2060.18 889.25 2065.24 884.48 2069.69C879.71 2074.15 874.38 2077.98 868.64 2081.08L469.95 2305.49C427.71 2328.53 391.88 2301.37 382.99 2277.36L356.18 2217.71C341.79 2185.59 357 2147.05 390.66 2132.53L674.43 1991.73L674.43 1989.66L390.66 1848.76C357.03 1834.27 341.79 1795.71 356.18 1763.59L382.99 1703.9C391.88 1679.92 427.71 1652.8 469.95 1675.77L868.64 1900.18C874.38 1903.28 879.71 1907.11 884.48 1911.57C889.25 1916.03 893.43 1921.09 896.91 1926.62C900.39 1932.14 903.15 1938.1 905.11 1944.33C907.08 1950.56 908.23 1957.01 908.55 1963.54L908.55 2017.72L908.58 2017.75ZM352.66 1359.25C352.66 1359.25 352.66 1359.26 352.66 1359.26C352.66 1359.27 352.66 1359.27 352.66 1359.28L352.66 1359.25ZM633.39 1079.21C788.49 1079.21 914.24 1204.52 914.24 1359.25C914.24 1513.88 788.49 1639.28 633.39 1639.28C478.41 1639.28 352.67 1513.89 352.66 1359.26C352.67 1204.51 478.38 1079.21 633.39 1079.21ZM302.84 2483.69C302.84 2498.13 299.98 2512.42 294.45 2525.75C288.92 2539.08 280.81 2551.19 270.59 2561.38C260.38 2571.58 248.25 2579.66 234.91 2585.17C221.57 2590.67 207.27 2593.5 192.84 2593.48C132.06 2593.48 82.84 2544.32 82.84 2483.69C82.86 2469.26 85.71 2454.98 91.25 2441.66C96.79 2428.33 104.9 2416.23 115.11 2406.04C125.32 2395.84 137.45 2387.77 150.78 2382.26C164.12 2376.75 178.41 2373.93 192.84 2373.94C253.63 2373.94 302.84 2423.1 302.84 2483.69ZM735.77 1316.9C730.19 1303.47 722.01 1291.28 711.72 1281.02C701.42 1270.76 689.2 1262.62 675.76 1257.08C662.32 1251.53 647.92 1248.69 633.39 1248.71C618.86 1248.7 604.46 1251.55 591.03 1257.09C577.6 1262.64 565.4 1270.78 555.11 1281.04C544.82 1291.31 536.66 1303.5 531.08 1316.91C525.5 1330.33 522.62 1344.72 522.6 1359.25C522.61 1373.78 525.49 1388.17 531.07 1401.59C536.65 1415.01 544.81 1427.2 555.1 1437.46C565.39 1447.73 577.6 1455.86 591.03 1461.41C604.46 1466.95 618.85 1469.8 633.39 1469.78C647.93 1469.81 662.33 1466.97 675.77 1461.43C689.21 1455.89 701.43 1447.75 711.73 1437.49C722.02 1427.22 730.2 1415.03 735.78 1401.6C741.36 1388.18 744.25 1373.79 744.27 1359.25C744.24 1344.71 741.36 1330.32 735.77 1316.9ZM426.33 2579.21C388.84 2579.21 358.44 2548.94 358.44 2511.54L358.44 2454.9C358.44 2417.5 388.84 2387.21 426.33 2387.21L840.73 2387.21C878.22 2387.21 908.58 2417.5 908.58 2454.9L908.58 2511.54C908.57 2520.44 906.81 2529.26 903.39 2537.48C899.98 2545.7 894.97 2553.16 888.67 2559.45C882.36 2565.73 874.88 2570.71 866.65 2574.1C858.42 2577.49 849.6 2579.23 840.69 2579.21L426.33 2579.21Z" />
</svg>